<?xml version="1.0" standalone="no"?>
<!DOCTYPE svg PUBLIC "-//W3C//DTD SVG 20010904//EN"
 "http://www.w3.org/TR/2001/REC-SVG-20010904/DTD/svg10.dtd">
<svg version="1.0" xmlns="http://www.w3.org/2000/svg"
 width="3000.000000pt" height="3000.000000pt" viewBox="0 0 3000.000000 3000.000000"
 preserveAspectRatio="xMidYMid meet">

<g> transform="translate(0.000000,3000.000000) scale(0.100000,-0.100000)"
fill="#000000" stroke="none">
<path d="M17306 23645 c-51 -18 -89 -56 -135 -135 -21 -36 -1823 -3159 -4006
-6940 -2182 -3781 -4404 -7630 -4936 -8553 -533 -922 -969 -1680 -969 -1683 0
-3 132 -4 293 -2 l292 4 95 32 c182 63 350 197 418 334 9 19 1925 3339 4257
7376 l4240 7342 3 -2660 c1 -1463 5 -2660 10 -2660 4 1 175 293 380 649 l372
649 -2 3060 -3 3060 -30 43 c-59 85 -178 120 -279 84z"/>
<path d="M22041 23649 c-152 -30 -281 -98 -392 -209 -47 -47 -97 -105 -111
-130 -14 -25 -1073 -1859 -2352 -4077 l-2326 -4032 -2 -3663 -3 -3662 -749
1299 c-413 715 -775 1343 -806 1395 -31 52 -69 118 -85 146 l-28 51 90 154
c49 85 325 562 611 1060 l522 906 -2 765 -3 764 -414 -716 c-626 -1080 -1530
-2649 -1558 -2705 -84 -163 -85 -295 -4 -454 22 -43 1341 -2330 1904 -3301
170 -294 329 -563 353 -597 93 -131 246 -238 409 -285 67 -19 104 -23 225 -23
139 0 147 1 191 27 25 15 59 46 75 69 l29 42 5 3595 5 3595 1995 -3454 c1097
-1900 2006 -3475 2020 -3501 39 -73 99 -144 170 -202 87 -70 140 -100 252
-138 l93 -32 293 -4 c160 -2 292 -1 292 2 0 3 -49 90 -109 194 -60 103 -1065
1843 -2233 3867 -2772 4801 -2689 4657 -2704 4680 -11 17 -9 26 15 65 42 68
4669 8080 4735 8198 31 57 76 136 100 175 46 76 76 132 76 142 0 8 -531 4
-579 -6z"/>
</g>
</svg>
