<svg version="1.1" id="Layer_1" xmlns="http://www.w3.org/2000/svg" xmlns:xlink="http://www.w3.org/1999/xlink" x="0px" y="0px"
	 width="100%" viewBox="0 0 3000 3000" enable-background="new 0 0 3000 3000" xml:space="preserve">
<path fill="#000000" opacity="1.000000" stroke="none" 
	d="
M1388.000000,3002.000000 
	C925.333435,3002.000000 463.666840,3002.000000 2.000186,3002.000000 
	C2.000124,2002.000244 2.000124,1002.000549 2.000062,2.000588 
	C1001.999573,2.000392 2001.999146,2.000392 3001.999023,2.000196 
	C3001.999512,1001.999329 3001.999512,2001.998657 3001.999756,3001.999023 
	C2464.333252,3002.000000 1926.666626,3002.000000 1388.000000,3002.000000 
M1688.527710,864.057617 
	C1688.527710,864.057617 1689.389893,864.200012 1689.564697,866.042053 
	C1689.594849,898.369385 1689.648926,930.696716 1689.651245,963.024048 
	C1689.661133,1101.333374 1689.652710,1239.642822 1689.671631,1377.952148 
	C1689.672119,1381.725098 1689.906372,1385.498047 1690.031616,1389.271118 
	C1693.237183,1387.357178 1694.867798,1385.347046 1696.147095,1383.133911 
	C1717.313599,1346.514282 1738.280518,1309.777710 1759.695923,1273.304443 
	C1764.111328,1265.784424 1765.804443,1258.308960 1765.796997,1249.684082 
	C1765.639648,1068.382324 1765.683350,887.080383 1765.684692,705.778503 
	C1765.684692,690.114624 1765.856323,674.447510 1765.595947,658.787781 
	C1765.386719,646.200500 1756.973145,637.510620 1744.516602,636.402710 
	C1732.921387,635.371521 1726.054565,641.875549 1720.709351,651.145203 
	C1687.270752,709.134583 1653.732666,767.066528 1620.272583,825.043518 
	C1569.167358,913.594299 1518.118408,1002.177612 1467.009521,1090.726196 
	C1393.590820,1217.927246 1320.122437,1345.099487 1246.709106,1472.303467 
	C1195.606567,1560.849121 1144.571411,1649.433350 1093.486572,1737.989014 
	C1036.739502,1836.360352 979.996887,1934.734131 923.201294,2033.077393 
	C887.725403,2094.504883 852.088989,2155.840088 816.647949,2217.287598 
	C788.197754,2266.614502 759.932861,2316.048096 730.809814,2366.215332 
	C731.269592,2367.295410 731.729309,2368.375244 734.034851,2369.599609 
	C747.367554,2369.623535 760.727722,2369.121094 774.025330,2369.816162 
	C787.939575,2370.543945 799.816467,2364.936523 811.726257,2359.337158 
	C827.940063,2351.714355 836.495911,2336.933838 844.979919,2322.246826 
	C899.794434,2227.354004 954.609863,2132.461914 1009.382324,2037.545044 
	C1072.311279,1928.493408 1135.158813,1819.394653 1198.110229,1710.356079 
	C1264.716431,1594.987183 1331.414795,1479.671509 1398.050171,1364.319336 
	C1426.028076,1315.886841 1453.919434,1267.404297 1481.898560,1218.972534 
	C1543.214722,1112.834595 1604.548828,1006.706970 1665.913574,900.597107 
	C1673.055054,888.248169 1680.435425,876.037354 1688.527710,864.057617 
M1641.529053,1565.302368 
	C1580.885620,1670.320557 1520.230835,1775.332275 1459.619141,1880.368896 
	C1454.626099,1889.021851 1449.732788,1897.743774 1445.137085,1906.611938 
	C1438.745850,1918.944702 1438.736816,1931.567749 1444.472534,1944.171143 
	C1446.126709,1947.805786 1447.914917,1951.398926 1449.910522,1954.855835 
	C1513.363770,2064.777344 1576.838867,2174.686035 1640.344360,2284.577393 
	C1649.844604,2301.017090 1659.036377,2317.662109 1669.206543,2333.681396 
	C1686.433960,2360.816650 1712.218628,2371.364502 1743.517700,2369.434082 
	C1757.345337,2368.581299 1765.098389,2359.717041 1765.447632,2345.845947 
	C1765.565063,2341.182617 1765.496460,2336.514160 1765.496460,2331.848145 
	C1765.494385,2106.543701 1765.488770,1881.239380 1765.500122,1655.935059 
	C1765.500366,1651.095459 1765.696289,1646.255859 1765.800903,1641.416138 
	C1766.480347,1641.231323 1767.159912,1641.046387 1767.839355,1640.861450 
	C1769.466675,1643.148560 1771.293945,1645.320068 1772.692505,1647.739380 
	C1825.709595,1739.452026 1878.693359,1831.183960 1931.668579,1922.920898 
	C1975.314209,1998.501709 2018.965576,2074.079102 2062.572266,2149.682373 
	C2097.856201,2210.856445 2132.962158,2272.133789 2168.393311,2333.222412 
	C2179.566406,2352.486084 2196.811768,2364.632568 2218.613281,2367.624756 
	C2235.967773,2370.006592 2253.792236,2368.984863 2271.410400,2369.369629 
	C2272.587891,2369.395264 2273.784668,2368.534912 2276.177490,2367.631836 
	C2273.490723,2362.554443 2271.216309,2357.903320 2268.634277,2353.429443 
	C2224.499756,2276.956543 2180.315674,2200.512695 2136.166992,2124.048096 
	C2083.188232,2032.290283 2030.244019,1940.512695 1977.265137,1848.755249 
	C1910.791992,1733.626221 1844.378052,1618.462646 1777.634644,1503.490356 
	C1773.196411,1495.845215 1773.100098,1490.317383 1777.568359,1482.682861 
	C1813.744141,1420.870728 1849.514771,1358.821167 1885.327759,1296.797119 
	C1926.805176,1224.962891 1968.156616,1153.055786 2009.643433,1081.226929 
	C2050.629639,1010.264648 2091.768311,939.390076 2132.745605,868.422729 
	C2175.220703,794.862061 2217.591553,721.241333 2259.957764,647.617920 
	C2261.520508,644.902222 2262.552002,641.880676 2264.261719,638.032471 
	C2260.342529,637.388123 2257.819580,636.636169 2255.290527,636.614380 
	C2242.626709,636.505188 2229.952148,636.306641 2217.301270,636.730774 
	C2211.705566,636.918396 2206.019287,638.015320 2200.611084,639.540527 
	C2178.879150,645.669312 2164.008545,659.692749 2152.861084,679.209045 
	C2108.907471,756.160828 2064.372559,832.780701 2020.077393,909.537659 
	C1967.622314,1000.434753 1915.194092,1091.347290 1862.750854,1182.251343 
	C1807.477295,1278.061646 1752.288818,1373.921387 1696.773193,1469.591187 
	C1691.698730,1478.336182 1689.618042,1486.962646 1689.625366,1496.955444 
	C1689.795532,1728.925537 1689.758423,1960.895752 1689.745605,2192.865967 
	C1689.745361,2198.529541 1689.583374,2204.193115 1688.447266,2209.835693 
	C1687.747925,2209.853271 1687.048584,2209.870850 1685.580688,2208.717529 
	C1663.552734,2170.686768 1641.510986,2132.664307 1619.500244,2094.623535 
	C1590.151855,2043.901489 1560.669800,1993.255737 1531.571899,1942.390381 
	C1520.243408,1922.587524 1520.166748,1929.557251 1532.094971,1908.688965 
	C1567.612793,1846.550781 1603.558960,1784.656982 1639.442261,1722.728271 
	C1642.894653,1716.769897 1644.457153,1710.705566 1644.427490,1703.780518 
	C1644.228149,1657.151367 1644.298096,1610.520996 1644.365845,1563.381958 
	C1643.582397,1563.597168 1642.799072,1563.812500 1641.529053,1565.302368 
z"/>
<path fill="#7E0000" opacity="1.000000" stroke="none" 
	d="
M1689.496826,2209.856689 
	C1689.583374,2204.193115 1689.745361,2198.529541 1689.745605,2192.865967 
	C1689.758423,1960.895752 1689.795532,1728.925537 1689.625366,1496.955444 
	C1689.618042,1486.962646 1691.698730,1478.336182 1696.773193,1469.591187 
	C1752.288818,1373.921387 1807.477295,1278.061646 1862.750854,1182.251343 
	C1915.194092,1091.347290 1967.622314,1000.434753 2020.077393,909.537659 
	C2064.372559,832.780701 2108.907471,756.160828 2152.861084,679.209045 
	C2164.008545,659.692749 2178.879150,645.669312 2200.611084,639.540527 
	C2206.019287,638.015320 2211.705566,636.918396 2217.301270,636.730774 
	C2229.952148,636.306641 2242.626709,636.505188 2255.290527,636.614380 
	C2257.819580,636.636169 2260.342529,637.388123 2264.261719,638.032471 
	C2262.552002,641.880676 2261.520508,644.902222 2259.957764,647.617920 
	C2217.591553,721.241333 2175.220703,794.862061 2132.745605,868.422729 
	C2091.768311,939.390076 2050.629639,1010.264648 2009.643433,1081.226929 
	C1968.156616,1153.055786 1926.805176,1224.962891 1885.327759,1296.797119 
	C1849.514771,1358.821167 1813.744141,1420.870728 1777.568359,1482.682861 
	C1773.100098,1490.317383 1773.196411,1495.845215 1777.634644,1503.490356 
	C1844.378052,1618.462646 1910.791992,1733.626221 1977.265137,1848.755249 
	C2030.244019,1940.512695 2083.188232,2032.290283 2136.166992,2124.048096 
	C2180.315674,2200.512695 2224.499756,2276.956543 2268.634277,2353.429443 
	C2271.216309,2357.903320 2273.490723,2362.554443 2276.177490,2367.631836 
	C2273.784668,2368.534912 2272.587891,2369.395264 2271.410400,2369.369629 
	C2253.792236,2368.984863 2235.967773,2370.006592 2218.613281,2367.624756 
	C2196.811768,2364.632568 2179.566406,2352.486084 2168.393311,2333.222412 
	C2132.962158,2272.133789 2097.856201,2210.856445 2062.572266,2149.682373 
	C2018.965576,2074.079102 1975.314209,1998.501709 1931.668579,1922.920898 
	C1878.693359,1831.183960 1825.709595,1739.452026 1772.692505,1647.739380 
	C1771.293945,1645.320068 1769.466675,1643.148560 1767.839355,1640.861450 
	C1767.159912,1641.046387 1766.480347,1641.231323 1765.800903,1641.416138 
	C1765.696289,1646.255859 1765.500366,1651.095459 1765.500122,1655.935059 
	C1765.488770,1881.239380 1765.494385,2106.543701 1765.496460,2331.848145 
	C1765.496460,2336.514160 1765.565063,2341.182617 1765.447632,2345.845947 
	C1765.098389,2359.717041 1757.345337,2368.581299 1743.517700,2369.434082 
	C1712.218628,2371.364502 1686.433960,2360.816650 1669.206543,2333.681396 
	C1659.036377,2317.662109 1649.844604,2301.017090 1640.344360,2284.577393 
	C1576.838867,2174.686035 1513.363770,2064.777344 1449.910522,1954.855835 
	C1447.914917,1951.398926 1446.126709,1947.805786 1444.472534,1944.171143 
	C1438.736816,1931.567749 1438.745850,1918.944702 1445.137085,1906.611938 
	C1449.732788,1897.743774 1454.626099,1889.021851 1459.619141,1880.368896 
	C1520.230835,1775.332275 1580.885620,1670.320557 1642.337158,1564.606445 
	C1643.523804,1563.903931 1643.902222,1563.897461 1644.280762,1563.891113 
	C1644.298096,1610.520996 1644.228149,1657.151367 1644.427490,1703.780518 
	C1644.457153,1710.705566 1642.894653,1716.769897 1639.442261,1722.728271 
	C1603.558960,1784.656982 1567.612793,1846.550781 1532.094971,1908.688965 
	C1520.166748,1929.557251 1520.243408,1922.587524 1531.571899,1942.390381 
	C1560.669800,1993.255737 1590.151855,2043.901489 1619.500244,2094.623535 
	C1641.510986,2132.664307 1663.552734,2170.686768 1686.082764,2209.700439 
	C1688.087769,2212.282227 1689.208252,2212.534668 1689.496826,2209.856689 
z"/>
<path fill="#5E5E5E" opacity="1.000000" stroke="none" 
	d="
M731.585693,2365.434326 
	C759.932861,2316.048096 788.197754,2266.614502 816.647949,2217.287598 
	C852.088989,2155.840088 887.725403,2094.504883 923.201294,2033.077393 
	C979.996887,1934.734131 1036.739502,1836.360352 1093.486572,1737.989014 
	C1144.571411,1649.433350 1195.606567,1560.849121 1246.709106,1472.303467 
	C1320.122437,1345.099487 1393.590820,1217.927246 1467.009521,1090.726196 
	C1518.118408,1002.177612 1569.167358,913.594299 1620.272583,825.043518 
	C1653.732666,767.066528 1687.270752,709.134583 1720.709351,651.145203 
	C1726.054565,641.875549 1732.921387,635.371521 1744.516602,636.402710 
	C1756.973145,637.510620 1765.386719,646.200500 1765.595947,658.787781 
	C1765.856323,674.447510 1765.684692,690.114624 1765.684692,705.778503 
	C1765.683350,887.080383 1765.639648,1068.382324 1765.796997,1249.684082 
	C1765.804443,1258.308960 1764.111328,1265.784424 1759.695923,1273.304443 
	C1738.280518,1309.777710 1717.313599,1346.514282 1696.147095,1383.133911 
	C1694.867798,1385.347046 1693.237183,1387.357178 1690.031616,1389.271118 
	C1689.906372,1385.498047 1689.672119,1381.725098 1689.671631,1377.952148 
	C1689.652710,1239.642822 1689.661133,1101.333374 1689.651245,963.024048 
	C1689.648926,930.696716 1689.594849,898.369385 1689.455566,864.760986 
	C1688.799438,863.574158 1688.252197,863.668396 1687.705078,863.762573 
	C1680.435425,876.037354 1673.055054,888.248169 1665.913574,900.597107 
	C1604.548828,1006.706970 1543.214722,1112.834595 1481.898560,1218.972534 
	C1453.919434,1267.404297 1426.028076,1315.886841 1398.050171,1364.319336 
	C1331.414795,1479.671509 1264.716431,1594.987183 1198.110229,1710.356079 
	C1135.158813,1819.394653 1072.311279,1928.493408 1009.382324,2037.545044 
	C954.609863,2132.461914 899.794434,2227.354004 844.979919,2322.246826 
	C836.495911,2336.933838 827.940063,2351.714355 811.726257,2359.337158 
	C799.816467,2364.936523 787.939575,2370.543945 774.025330,2369.816162 
	C760.727722,2369.121094 747.367554,2369.623535 733.030273,2368.854736 
	C731.879028,2367.218018 731.732361,2366.326172 731.585693,2365.434326 
z"/>
<path fill="#200000" opacity="1.000000" stroke="none" 
	d="
M1644.323242,1563.636475 
	C1643.902222,1563.897461 1643.523804,1563.903931 1642.580444,1563.969238 
	C1642.799072,1563.812500 1643.582397,1563.597168 1644.323242,1563.636475 
z"/>
<path fill="#1A0202" opacity="1.000000" stroke="none" 
	d="
M1688.971924,2209.846191 
	C1689.208252,2212.534668 1688.087769,2212.282227 1686.467041,2210.285645 
	C1687.048584,2209.870850 1687.747925,2209.853271 1688.971924,2209.846191 
z"/>
<path fill="#474747" opacity="1.000000" stroke="none" 
	d="
M731.197754,2365.824707 
	C731.732361,2366.326172 731.879028,2367.218018 732.107361,2368.782715 
	C731.729309,2368.375244 731.269592,2367.295410 731.197754,2365.824707 
z"/>
<path fill="#181818" opacity="1.000000" stroke="none" 
	d="
M1688.116455,863.910095 
	C1688.252197,863.668396 1688.799438,863.574158 1689.368164,863.839966 
	C1689.389893,864.200012 1688.527710,864.057617 1688.116455,863.910095 
z"/>
</svg>
